HIERARCHY
ROOT Hips
{
	OFFSET 0.000000 100.481300 0.000000
	CHANNELS 6 Xposition Yposition Zposition Xrotation Yrotation Zrotation
	JOINT Spine
	{
		OFFSET -0.279200 12.230698 -2.892100
		CHANNELS 3 Xrotation Yrotation Zrotation
		JOINT Spine1
		{
			OFFSET -0.325700 14.269203 -3.374200
			CHANNELS 3 Xrotation Yrotation Zrotation
			JOINT Spine2
			{
				OFFSET -0.372300 16.307602 -0.352600
				CHANNELS 3 Xrotation Yrotation Zrotation
				JOINT Neck
				{
					OFFSET -0.418800 17.814194 8.416900
					CHANNELS 3 Xrotation Yrotation Zrotation
					JOINT Head
					{
						OFFSET 0.000000 7.031097 3.806800
						CHANNELS 3 Xrotation Yrotation Zrotation
						JOINT HeadTop_End
						{
							OFFSET 0.000000 24.646606 12.978600
							CHANNELS 3 Xrotation Yrotation Zrotation
							End Site
							{
								OFFSET 0.000000 27.854965 0.000000
							}
						}
					}
				}
				JOINT LeftShoulder
				{
					OFFSET 16.952999 14.495407 -7.737500
					CHANNELS 3 Xrotation Yrotation Zrotation
					JOINT LeftArm
					{
						OFFSET 9.308998 -2.777710 0.208600
						CHANNELS 3 Xrotation Yrotation Zrotation
						JOINT LeftForeArm
						{
							OFFSET 29.972298 0.000000 0.000000
							CHANNELS 3 Xrotation Yrotation Zrotation
							JOINT LeftHand
							{
								OFFSET 26.026505 0.000000 0.000000
								CHANNELS 3 Xrotation Yrotation Zrotation
								JOINT LeftHandThumb1
								{
									OFFSET 12.240501 -7.147949 9.207150
									CHANNELS 3 Xrotation Yrotation Zrotation
									JOINT LeftHandThumb2
									{
										OFFSET 4.138618 -2.389435 2.389433
										CHANNELS 3 Xrotation Yrotation Zrotation
										JOINT LeftHandThumb3
										{
											OFFSET 2.726913 -1.574387 1.574386
											CHANNELS 3 Xrotation Yrotation Zrotation
											JOINT LeftHandThumb4
											{
												OFFSET 3.941010 -2.275345 2.275342
												CHANNELS 3 Xrotation Yrotation Zrotation
												End Site
												{
													OFFSET -0.005798 5.087799 0.009903
												}
											}
										}
									}
								}
								JOINT LeftHandIndex1
								{
									OFFSET 24.424698 -1.985611 5.953459
									CHANNELS 3 Xrotation Yrotation Zrotation
									JOINT LeftHandIndex2
									{
										OFFSET 6.426697 0.000000 0.000000
										CHANNELS 3 Xrotation Yrotation Zrotation
										JOINT LeftHandIndex3
										{
											OFFSET 5.337898 0.000000 0.000000
											CHANNELS 3 Xrotation Yrotation Zrotation
											JOINT LeftHandIndex4
											{
												OFFSET 4.409401 0.000000 0.000000
												CHANNELS 3 Xrotation Yrotation Zrotation
												End Site
												{
													OFFSET 0.000000 4.409363 0.014373
												}
											}
										}
									}
								}
								JOINT LeftHandMiddle1
								{
									OFFSET 23.810104 0.000000 0.000000
									CHANNELS 3 Xrotation Yrotation Zrotation
									JOINT LeftHandMiddle2
									{
										OFFSET 7.176498 0.000000 0.000000
										CHANNELS 3 Xrotation Yrotation Zrotation
										JOINT LeftHandMiddle3
										{
											OFFSET 6.774902 0.000000 0.000000
											CHANNELS 3 Xrotation Yrotation Zrotation
											JOINT LeftHandMiddle4
											{
												OFFSET 5.403328 0.000000 0.000000
												CHANNELS 3 Xrotation Yrotation Zrotation
												End Site
												{
													OFFSET -0.027702 5.403244 0.017414
												}
											}
										}
									}
								}
								JOINT LeftHandRing1
								{
									OFFSET 22.908401 -0.839279 -6.020567
									CHANNELS 3 Xrotation Yrotation Zrotation
									JOINT LeftHandRing2
									{
										OFFSET 6.337502 0.000000 0.000000
										CHANNELS 3 Xrotation Yrotation Zrotation
										JOINT LeftHandRing3
										{
											OFFSET 5.779297 0.000000 0.000000
											CHANNELS 3 Xrotation Yrotation Zrotation
											JOINT LeftHandRing4
											{
												OFFSET 4.965698 0.000000 0.000000
												CHANNELS 3 Xrotation Yrotation Zrotation
												End Site
												{
													OFFSET 0.000000 4.965668 0.016186
												}
											}
										}
									}
								}
								JOINT LeftHandPinky1
								{
									OFFSET 20.037003 -1.530319 -10.950146
									CHANNELS 3 Xrotation Yrotation Zrotation
									JOINT LeftHandPinky2
									{
										OFFSET 5.254700 0.000000 0.000000
										CHANNELS 3 Xrotation Yrotation Zrotation
										JOINT LeftHandPinky3
										{
											OFFSET 4.810204 0.000000 0.000000
											CHANNELS 3 Xrotation Yrotation Zrotation
											JOINT LeftHandPinky4
											{
												OFFSET 3.647202 0.000000 0.000000
												CHANNELS 3 Xrotation Yrotation Zrotation
												End Site
												{
													OFFSET 0.000000 3.647186 0.011889
												}
											}
										}
									}
								}
							}
						}
					}
				}
				JOINT RightShoulder
				{
					OFFSET -15.141001 14.495407 -7.737500
					CHANNELS 3 Xrotation Yrotation Zrotation
					JOINT RightArm
					{
						OFFSET -9.308998 -2.777710 0.208500
						CHANNELS 3 Xrotation Yrotation Zrotation
						JOINT RightForeArm
						{
							OFFSET -29.972300 0.000000 0.000000
							CHANNELS 3 Xrotation Yrotation Zrotation
							JOINT RightHand
							{
								OFFSET -26.026505 0.000000 0.000000
								CHANNELS 3 Xrotation Yrotation Zrotation
								JOINT RightHandThumb1
								{
									OFFSET -12.240601 -7.148026 9.207092
									CHANNELS 3 Xrotation Yrotation Zrotation
									JOINT RightHandThumb2
									{
										OFFSET -4.138618 -2.389435 2.389433
										CHANNELS 3 Xrotation Yrotation Zrotation
										JOINT RightHandThumb3
										{
											OFFSET -2.726974 -1.574417 1.574421
											CHANNELS 3 Xrotation Yrotation Zrotation
											JOINT RightHandThumb4
											{
												OFFSET -3.941010 -2.275345 2.275343
												CHANNELS 3 Xrotation Yrotation Zrotation
												End Site
												{
													OFFSET 0.005814 5.087799 0.009927
												}
											}
										}
									}
								}
								JOINT RightHandIndex1
								{
									OFFSET -24.424698 -1.985657 5.953444
									CHANNELS 3 Xrotation Yrotation Zrotation
									JOINT RightHandIndex2
									{
										OFFSET -6.426697 0.000000 0.000000
										CHANNELS 3 Xrotation Yrotation Zrotation
										JOINT RightHandIndex3
										{
											OFFSET -5.337898 0.000000 0.000000
											CHANNELS 3 Xrotation Yrotation Zrotation
											JOINT RightHandIndex4
											{
												OFFSET -4.409401 0.000000 0.000000
												CHANNELS 3 Xrotation Yrotation Zrotation
												End Site
												{
													OFFSET 0.000000 4.409363 0.014408
												}
											}
										}
									}
								}
								JOINT RightHandMiddle1
								{
									OFFSET -23.810097 0.000000 0.000000
									CHANNELS 3 Xrotation Yrotation Zrotation
									JOINT RightHandMiddle2
									{
										OFFSET -7.176498 0.000000 0.000000
										CHANNELS 3 Xrotation Yrotation Zrotation
										JOINT RightHandMiddle3
										{
											OFFSET -6.774902 0.000000 0.000000
											CHANNELS 3 Xrotation Yrotation Zrotation
											JOINT RightHandMiddle4
											{
												OFFSET -5.403328 0.000000 0.000000
												CHANNELS 3 Xrotation Yrotation Zrotation
												End Site
												{
													OFFSET 0.027702 5.403244 0.017457
												}
											}
										}
									}
								}
								JOINT RightHandRing1
								{
									OFFSET -22.908302 -0.839325 -6.020576
									CHANNELS 3 Xrotation Yrotation Zrotation
									JOINT RightHandRing2
									{
										OFFSET -6.337502 0.000000 0.000000
										CHANNELS 3 Xrotation Yrotation Zrotation
										JOINT RightHandRing3
										{
											OFFSET -5.779297 0.000000 0.000000
											CHANNELS 3 Xrotation Yrotation Zrotation
											JOINT RightHandRing4
											{
												OFFSET -4.965698 0.000000 0.000000
												CHANNELS 3 Xrotation Yrotation Zrotation
												End Site
												{
													OFFSET 0.000000 4.965668 0.016226
												}
											}
										}
									}
								}
								JOINT RightHandPinky1
								{
									OFFSET -20.037003 -1.530334 -10.950259
									CHANNELS 3 Xrotation Yrotation Zrotation
									JOINT RightHandPinky2
									{
										OFFSET -5.254700 0.000000 0.000000
										CHANNELS 3 Xrotation Yrotation Zrotation
										JOINT RightHandPinky3
										{
											OFFSET -4.810204 0.000000 0.000000
											CHANNELS 3 Xrotation Yrotation Zrotation
											JOINT RightHandPinky4
											{
												OFFSET -3.647202 0.000000 0.000000
												CHANNELS 3 Xrotation Yrotation Zrotation
												End Site
												{
													OFFSET 0.000000 3.647186 0.011917
												}
											}
										}
									}
								}
							}
						}
					}
				}
			}
		}
	}
	JOINT LeftUpLeg
	{
		OFFSET 15.427100 -6.655098 0.678600
		CHANNELS 3 Xrotation Yrotation Zrotation
		JOINT LeftLeg
		{
			OFFSET 4.081073 -39.591068 13.024000
			CHANNELS 3 Xrotation Yrotation Zrotation
			JOINT LeftFoot
			{
				OFFSET -4.081074 -37.707932 -15.979700
				CHANNELS 3 Xrotation Yrotation Zrotation
				JOINT LeftToeBase
				{
					OFFSET 5.346399 -15.068900 20.645000
					CHANNELS 3 Xrotation Yrotation Zrotation
					JOINT LeftToe_End
					{
						OFFSET 2.754700 0.931300 11.300900
						CHANNELS 3 Xrotation Yrotation Zrotation
						End Site
						{
							OFFSET 0.000000 11.669021 0.000000
						}
					}
				}
			}
		}
	}
	JOINT RightUpLeg
	{
		OFFSET -15.569500 -6.655098 0.678600
		CHANNELS 3 Xrotation Yrotation Zrotation
		JOINT RightLeg
		{
			OFFSET -4.081825 -39.591045 13.023800
			CHANNELS 3 Xrotation Yrotation Zrotation
			JOINT RightFoot
			{
				OFFSET 4.081824 -37.707954 -15.979600
				CHANNELS 3 Xrotation Yrotation Zrotation
				JOINT RightToeBase
				{
					OFFSET -5.346400 -15.068900 20.645000
					CHANNELS 3 Xrotation Yrotation Zrotation
					JOINT RightToe_End
					{
						OFFSET -2.754700 0.931300 11.300900
						CHANNELS 3 Xrotation Yrotation Zrotation
						End Site
						{
							OFFSET 0.000000 11.669021 0.000000
						}
					}
				}
			}
		}
	}
}
MOTION
Frames: 5
Frame Time: 0.033333
6.088091 88.966553 -4.982874 3.050350 -31.808693 -5.144044 1.913546 0.023458 -1.554308 5.173256 -0.115992 0.383562 5.174240 -0.112887 0.367021 -1.084122 4.260540 1.980135 15.719779 23.825150 -20.741403 -0.000003 0.000000 -0.000000 0.529587 -2.918257 -3.762840 -8.036642 -26.686130 -60.756124 0.000040 -64.101325 0.000042 -111.770547 12.466912 36.145078 -53.302124 15.099211 -1.059438 22.479964 15.244357 7.730978 -0.579461 1.574996 2.538723 0.000001 0.000000 0.000003 2.089786 4.944735 -45.799868 2.089804 4.944749 -45.799857 0.542612 2.683774 -22.856378 0.000001 0.000000 -0.000003 2.088410 4.943396 -45.783769 2.091188 4.946087 -45.815949 0.542614 2.683763 -22.856371 -0.000000 -0.000002 -0.000002 2.089787 4.944735 -45.799864 2.089804 4.944750 -45.799857 0.542613 2.683770 -22.856378 -0.000001 0.000001 -0.000002 5.009424 7.776610 -45.613076 2.108169 0.874457 -46.161618 0.542614 2.683773 -22.856383 0.000001 0.000000 -0.000002 0.259641 -0.003535 1.107201 5.663150 55.275608 32.678125 0.000160 95.513222 -0.000195 -11.060098 -38.371204 -14.750996 13.264682 20.160762 -28.520544 -10.568137 -41.809070 10.488099 -1.273754 0.137331 -2.094857 0.000002 0.000000 0.000002 1.163092 -3.854955 33.567723 1.248456 -3.980271 34.816886 0.319009 -2.085863 17.389195 -0.000000 -0.000002 -0.000002 1.163093 -3.854954 33.567719 1.248452 -3.980275 34.816886 0.319010 -2.085867 17.389189 0.000001 0.000001 0.000001 1.163094 -3.854956 33.567723 1.248448 -3.980280 34.816882 0.319007 -2.085867 17.389195 -0.000001 -0.000002 -0.000001 1.163092 -3.854955 33.567719 1.248454 -3.980280 34.816882 0.319007 -2.085865 17.389194 0.000003 -0.000003 -0.000003 -24.149657 9.549691 16.560690 37.560020 7.798401 -4.229230 -16.400959 3.221012 -3.667531 -0.000042 -0.000002 0.000007 0.000000 0.000000 0.000000 -17.216322 -10.645175 -13.979862 32.930552 9.399179 -1.887474 -8.035159 -1.113764 13.200052 -0.365805 -0.005364 0.837041 -0.000000 0.000001 -0.000000 
6.651941 89.970222 -4.142676 2.928002 -31.956942 -5.077563 1.758498 -0.184153 -1.542913 4.888489 -0.443612 0.444146 4.889497 -0.440068 0.434053 -0.990043 4.246738 2.018575 15.850299 23.800711 -20.798361 0.000001 -0.000000 -0.000000 0.535741 -2.978606 -3.859895 -7.572257 -26.379874 -60.912535 -0.000037 -64.365053 -0.000028 -111.700941 12.009960 35.947146 -53.302120 15.099209 -1.059436 22.479968 15.244357 7.730979 -0.579467 1.574997 2.538720 -0.000001 -0.000000 -0.000000 2.089784 4.944737 -45.799871 2.089802 4.944746 -45.799854 0.542610 2.683775 -22.856373 -0.000003 0.000000 -0.000000 2.088409 4.943395 -45.783769 2.091187 4.946090 -45.815953 0.542614 2.683762 -22.856374 -0.000002 0.000001 -0.000001 2.089784 4.944737 -45.799868 2.089803 4.944747 -45.799854 0.542612 2.683770 -22.856379 -0.000000 -0.000002 -0.000000 5.009424 7.776612 -45.613079 2.108170 0.874457 -46.161622 0.542612 2.683771 -22.856378 0.000000 0.000001 0.000001 0.243908 -0.134361 0.924326 5.758372 55.369687 33.150040 0.000233 95.475062 -0.000195 -10.753208 -38.269707 -14.674134 13.264683 20.160755 -28.520551 -10.568136 -41.809077 10.488100 -1.273755 0.137329 -2.094854 0.000002 -0.000005 0.000003 1.163092 -3.854956 33.567719 1.248448 -3.980270 34.816886 0.319008 -2.085863 17.389194 0.000002 -0.000001 -0.000001 1.163093 -3.854955 33.567716 1.248454 -3.980273 34.816886 0.319010 -2.085865 17.389189 0.000004 0.000001 -0.000001 1.163094 -3.854957 33.567716 1.248454 -3.980275 34.816886 0.319009 -2.085862 17.389195 -0.000000 0.000002 0.000001 1.163092 -3.854956 33.567716 1.248456 -3.980277 34.816886 0.319004 -2.085861 17.389194 0.000001 0.000003 0.000000 -22.254577 9.616924 14.977404 35.294087 8.042781 -3.874356 -15.992686 4.306723 -3.053289 -0.000042 -0.000001 0.000007 -0.000000 0.000000 -0.000000 -16.384277 -10.838619 -12.426868 30.158444 8.541060 -0.995300 -9.313216 -1.733201 12.927586 -0.000153 0.000002 -0.000004 0.000000 0.000001 0.000000 
7.109469 90.762054 -3.382834 2.803009 -31.864417 -5.088613 1.610591 -0.387472 -1.431331 4.615302 -0.778807 0.526392 4.616399 -0.773747 0.523391 -0.957603 4.219581 2.066826 15.895691 23.723868 -20.708107 0.000000 -0.000000 -0.000001 0.544163 -3.053988 -4.015202 -7.242569 -26.231627 -61.046578 -0.000061 -64.444180 -0.000058 -111.643444 11.690530 35.779984 -53.302124 15.099204 -1.059436 22.479964 15.244356 7.730979 -0.579467 1.574999 2.538719 -0.000002 -0.000002 -0.000000 2.089787 4.944736 -45.799864 2.089802 4.944744 -45.799857 0.542609 2.683776 -22.856378 0.000002 -0.000002 0.000001 2.088412 4.943394 -45.783765 2.091186 4.946087 -45.815953 0.542616 2.683764 -22.856371 0.000000 0.000000 -0.000000 2.089787 4.944736 -45.799868 2.089803 4.944747 -45.799854 0.542612 2.683773 -22.856376 -0.000000 -0.000000 -0.000000 5.009427 7.776612 -45.613072 2.108171 0.874454 -46.161615 0.542611 2.683770 -22.856383 0.000001 0.000001 -0.000001 0.229167 -0.255490 0.763303 6.011661 55.407697 33.348542 0.000040 95.452474 0.000014 -10.519366 -38.190620 -14.558965 13.264680 20.160762 -28.520548 -10.568135 -41.809070 10.488100 -1.273751 0.137324 -2.094852 0.000002 -0.000003 0.000002 1.163093 -3.854953 33.567723 1.248454 -3.980273 34.816886 0.319007 -2.085862 17.389195 0.000001 0.000003 0.000000 1.163094 -3.854953 33.567716 1.248454 -3.980276 34.816889 0.319010 -2.085867 17.389189 -0.000003 0.000003 0.000001 1.163093 -3.854954 33.567716 1.248453 -3.980274 34.816882 0.319005 -2.085861 17.389194 0.000001 -0.000000 0.000001 1.163093 -3.854953 33.567716 1.248455 -3.980282 34.816889 0.319004 -2.085859 17.389192 -0.000001 0.000001 0.000000 -20.716097 9.545322 13.657416 33.469597 8.281520 -3.485754 -15.674101 5.065677 -2.589343 -0.000042 -0.000002 0.000007 0.000000 0.000000 -0.000000 -15.445445 -10.758440 -11.012983 27.498591 7.076704 -0.456557 -10.265236 -1.891617 13.002540 0.000009 -0.000004 -0.000001 0.000000 -0.000001 -0.000000 
7.468623 91.377075 -2.702123 2.640612 -31.641090 -5.153914 1.476718 -0.567382 -1.243345 4.363361 -1.085712 0.611852 4.364640 -1.078677 0.615501 -0.978145 4.192709 2.099243 15.862607 23.633004 -20.447022 -0.000002 -0.000001 -0.000000 0.549897 -3.092527 -4.250943 -6.969400 -26.247507 -61.098576 0.000019 -64.384983 0.000017 -111.533226 11.497718 35.635112 -53.302127 15.099206 -1.059437 22.479964 15.244359 7.730981 -0.579466 1.574998 2.538721 0.000001 -0.000002 0.000003 2.089786 4.944736 -45.799868 2.089801 4.944745 -45.799854 0.542610 2.683774 -22.856376 -0.000001 0.000000 -0.000000 2.088408 4.943394 -45.783769 2.091185 4.946090 -45.815956 0.542615 2.683764 -22.856369 -0.000001 -0.000001 0.000001 2.089786 4.944736 -45.799868 2.089801 4.944747 -45.799857 0.542612 2.683773 -22.856386 0.000000 -0.000001 0.000000 5.009424 7.776611 -45.613076 2.108172 0.874456 -46.161618 0.542612 2.683770 -22.856378 -0.000001 0.000000 -0.000004 0.216912 -0.342616 0.615295 6.398614 55.403803 33.360925 0.000013 95.451716 -0.000038 -10.257716 -38.142973 -14.426823 13.264682 20.160755 -28.520546 -10.568138 -41.809077 10.488099 -1.273756 0.137325 -2.094860 0.000001 -0.000003 0.000003 1.163092 -3.854958 33.567726 1.248452 -3.980271 34.816886 0.319006 -2.085866 17.389194 -0.000004 0.000000 -0.000000 1.163093 -3.854957 33.567719 1.248456 -3.980274 34.816886 0.319005 -2.085866 17.389190 0.000001 0.000002 0.000001 1.163094 -3.854959 33.567719 1.248452 -3.980277 34.816879 0.319006 -2.085862 17.389194 0.000001 0.000000 -0.000001 1.163092 -3.854958 33.567719 1.248455 -3.980277 34.816889 0.319009 -2.085862 17.389190 0.000001 -0.000001 0.000001 -19.426168 9.420087 12.574572 32.013957 8.464787 -3.114340 -15.444794 5.576728 -2.230323 -0.000042 -0.000002 0.000007 0.000000 0.000000 -0.000000 -14.453193 -10.559814 -9.705862 25.056766 5.531120 -0.173205 -10.996906 -2.104877 13.143032 0.000014 0.000001 -0.000002 0.000000 0.000001 0.000000 
7.733133 91.838638 -2.087471 2.403695 -31.394555 -5.242165 1.357798 -0.705370 -1.005619 4.132593 -1.327198 0.682582 4.134124 -1.318382 0.691318 -1.024750 4.180587 2.088945 15.773938 23.572207 -20.035291 -0.000000 -0.000001 -0.000002 0.553543 -3.065832 -4.601494 -6.661040 -26.378687 -61.038361 -0.000058 -64.275331 -0.000064 -111.334051 11.369078 35.528496 -53.302124 15.099207 -1.059437 22.479966 15.244361 7.730978 -0.579462 1.574999 2.538722 -0.000002 -0.000002 0.000000 2.089788 4.944735 -45.799864 2.089802 4.944745 -45.799857 0.542611 2.683774 -22.856376 -0.000001 0.000000 0.000003 2.088407 4.943393 -45.783765 2.091188 4.946090 -45.815949 0.542616 2.683763 -22.856369 0.000000 -0.000000 -0.000000 2.089788 4.944735 -45.799864 2.089804 4.944747 -45.799861 0.542613 2.683768 -22.856381 0.000001 -0.000000 -0.000000 5.009426 7.776610 -45.613072 2.108170 0.874456 -46.161615 0.542612 2.683769 -22.856373 -0.000001 0.000001 0.000000 0.206233 -0.387083 0.426774 6.840230 55.372815 33.385066 -0.000443 95.472316 0.000407 -9.912590 -38.137802 -14.329908 13.264684 20.160758 -28.520548 -10.568144 -41.809070 10.488099 -1.273756 0.137329 -2.094860 -0.000001 0.000001 0.000002 1.163094 -3.854959 33.567723 1.248451 -3.980274 34.816886 0.319009 -2.085864 17.389195 -0.000002 -0.000001 -0.000000 1.163094 -3.854959 33.567716 1.248455 -3.980273 34.816882 0.319009 -2.085864 17.389195 -0.000002 -0.000001 0.000001 1.163094 -3.854959 33.567719 1.248455 -3.980273 34.816876 0.319009 -2.085863 17.389195 -0.000001 -0.000001 -0.000004 1.163094 -3.854959 33.567716 1.248455 -3.980278 34.816886 0.319007 -2.085865 17.389192 0.000002 -0.000000 0.000000 -18.258286 9.301539 11.693655 30.871410 8.625931 -2.811591 -15.322945 5.883673 -1.966794 -0.000042 -0.000002 0.000007 0.000000 0.000000 -0.000000 -13.431890 -10.373779 -8.588019 22.894149 4.028939 -0.014765 -11.561065 -2.297873 13.321353 -0.000009 -0.000018 -0.000001 0.000000 0.000001 -0.000000 
